<svg width="128" height="128" viewBox="0 0 128 128" fill="none" xmlns="http://www.w3.org/2000/svg">
<g clip-path="url(#clip0_1_2)">
<rect width="128" height="128" fill="white"/>
<rect width="128" height="128" fill="url(#paint0_linear_1_2)"/>
<path d="M27.9 81.76H31.02L44.34 43.12H51.18L64.5 81.76H67.62V85H51.96V81.76H57.12L53.76 71.74H38.58L35.22 81.76H40.38V85H27.9V81.76ZM39.54 68.32H52.8L46.32 48.76H46.02L39.54 68.32ZM80.363 85.72C77.243 85.72 74.883 84.96 73.283 83.44C71.723 81.88 70.943 79.76 70.943 77.08C70.943 74.04 72.023 71.74 74.183 70.18C76.343 68.62 79.863 67.84 84.743 67.84H89.063V63.76C89.063 61.32 88.523 59.46 87.443 58.18C86.363 56.9 84.663 56.26 82.343 56.26C80.383 56.26 78.903 56.54 77.903 57.1V57.34C78.343 57.54 78.743 57.9 79.103 58.42C79.503 58.9 79.703 59.58 79.703 60.46C79.703 61.58 79.363 62.48 78.683 63.16C78.043 63.84 77.103 64.18 75.863 64.18C74.823 64.18 73.943 63.84 73.223 63.16C72.543 62.44 72.203 61.48 72.203 60.28C72.203 59.36 72.463 58.48 72.983 57.64C73.543 56.76 74.343 55.98 75.383 55.3C76.423 54.62 77.683 54.08 79.163 53.68C80.683 53.28 82.423 53.08 84.383 53.08C88.143 53.08 90.983 53.96 92.903 55.72C94.823 57.48 95.783 59.94 95.783 63.1V81.82H99.863V84.52C99.303 84.84 98.583 85.12 97.703 85.36C96.823 85.6 95.883 85.72 94.883 85.72C93.043 85.72 91.683 85.26 90.803 84.34C89.963 83.38 89.543 82.16 89.543 80.68V80.38H89.243C88.963 81.06 88.603 81.72 88.163 82.36C87.723 82.96 87.143 83.52 86.423 84.04C85.743 84.56 84.903 84.96 83.903 85.24C82.903 85.56 81.723 85.72 80.363 85.72ZM83.003 81.52C84.763 81.52 86.203 81.1 87.323 80.26C88.483 79.42 89.063 78.04 89.063 76.12V70.78H85.463C82.623 70.78 80.643 71.24 79.523 72.16C78.403 73.08 77.843 74.4 77.843 76.12V77.26C77.843 78.7 78.303 79.78 79.223 80.5C80.143 81.18 81.403 81.52 83.003 81.52Z" fill="black"/>
</g>
<defs>
<linearGradient id="paint0_linear_1_2" x1="124.5" y1="128" x2="0" y2="0" gradientUnits="userSpaceOnUse">
<stop stop-color="#D9D9D9" stop-opacity="0.63"/>
<stop offset="0.0001" stop-color="#D9D9D9" stop-opacity="0.63"/>
<stop offset="1" stop-color="#D9D9D9" stop-opacity="0"/>
<stop offset="1" stop-color="#D9D9D9"/>
</linearGradient>
<clipPath id="clip0_1_2">
<rect width="128" height="128" fill="white"/>
</clipPath>
</defs>
</svg>
